<svg width="200" height="200" viewBox="0 0 200 200" fill="none" xmlns="http://www.w3.org/2000/svg">
<rect width="200" height="200" rx="22" fill="#FF531A"/>
<path d="M156 100.5C156 87.3173 151.308 74.565 142.763 64.5265C134.218 54.4879 122.379 47.8186 109.366 45.7127C96.3526 43.6068 83.0145 46.2018 71.7399 53.0331C60.4653 59.8644 51.9904 70.4858 47.8326 82.9957C43.6749 95.5056 44.1059 109.087 49.0483 121.308C53.9908 133.529 63.122 143.592 74.807 149.695C86.492 155.797 99.9678 157.542 112.822 154.615C125.675 151.688 137.068 144.282 144.959 133.722L100.5 100.5H156Z" fill="#D9D9D9"/>
<path d="M41.8693 128V71.2727H48.7386V96.5341H78.9858V71.2727H85.8551V128H78.9858V102.628H48.7386V128H41.8693ZM121.545 128V71.2727H140.713C145.163 71.2727 148.801 72.076 151.626 73.6825C154.47 75.2706 156.575 77.4219 157.941 80.1364C159.308 82.8509 159.991 85.8793 159.991 89.2216C159.991 92.5639 159.308 95.6016 157.941 98.3345C156.593 101.067 154.507 103.246 151.681 104.871C148.856 106.478 145.237 107.281 140.824 107.281H127.085V101.188H140.602C143.649 101.188 146.096 100.661 147.942 99.6087C149.789 98.5561 151.127 97.1342 151.958 95.343C152.808 93.5334 153.233 91.4929 153.233 89.2216C153.233 86.9503 152.808 84.919 151.958 83.1278C151.127 81.3366 149.779 79.9332 147.914 78.9176C146.049 77.8835 143.575 77.3665 140.491 77.3665H128.414V128H121.545Z" fill="black"/>
<path d="M41.8693 128H40.8693V129H41.8693V128ZM41.8693 71.2727V70.2727H40.8693V71.2727H41.8693ZM48.7386 71.2727H49.7386V70.2727H48.7386V71.2727ZM48.7386 96.5341H47.7386V97.5341H48.7386V96.5341ZM78.9858 96.5341V97.5341H79.9858V96.5341H78.9858ZM78.9858 71.2727V70.2727H77.9858V71.2727H78.9858ZM85.8551 71.2727H86.8551V70.2727H85.8551V71.2727ZM85.8551 128V129H86.8551V128H85.8551ZM78.9858 128H77.9858V129H78.9858V128ZM78.9858 102.628H79.9858V101.628H78.9858V102.628ZM48.7386 102.628V101.628H47.7386V102.628H48.7386ZM48.7386 128V129H49.7386V128H48.7386ZM42.8693 128V71.2727H40.8693V128H42.8693ZM41.8693 72.2727H48.7386V70.2727H41.8693V72.2727ZM47.7386 71.2727V96.5341H49.7386V71.2727H47.7386ZM48.7386 97.5341H78.9858V95.5341H48.7386V97.5341ZM79.9858 96.5341V71.2727H77.9858V96.5341H79.9858ZM78.9858 72.2727H85.8551V70.2727H78.9858V72.2727ZM84.8551 71.2727V128H86.8551V71.2727H84.8551ZM85.8551 127H78.9858V129H85.8551V127ZM79.9858 128V102.628H77.9858V128H79.9858ZM78.9858 101.628H48.7386V103.628H78.9858V101.628ZM47.7386 102.628V128H49.7386V102.628H47.7386ZM48.7386 127H41.8693V129H48.7386V127ZM121.545 128H120.545V129H121.545V128ZM121.545 71.2727V70.2727H120.545V71.2727H121.545ZM151.626 73.6825L151.132 74.5518L151.138 74.5556L151.626 73.6825ZM157.941 80.1364L157.048 80.586L157.048 80.586L157.941 80.1364ZM157.941 98.3345L157.047 97.8873L157.045 97.8922L157.941 98.3345ZM151.681 104.871L152.176 105.741L152.18 105.738L151.681 104.871ZM127.085 107.281H126.085V108.281H127.085V107.281ZM127.085 101.188V100.188H126.085V101.188H127.085ZM147.942 99.6087L147.447 98.7399L147.447 98.7399L147.942 99.6087ZM151.958 95.343L151.053 94.9181L151.051 94.9222L151.958 95.343ZM151.958 83.1278L151.051 83.5487L151.055 83.5563L151.958 83.1278ZM147.914 78.9176L147.429 79.7922L147.436 79.7958L147.914 78.9176ZM128.414 77.3665V76.3665H127.414V77.3665H128.414ZM128.414 128V129H129.414V128H128.414ZM122.545 128V71.2727H120.545V128H122.545ZM121.545 72.2727H140.713V70.2727H121.545V72.2727ZM140.713 72.2727C145.051 72.2727 148.503 73.0568 151.132 74.5518L152.12 72.8132C149.099 71.0951 145.275 70.2727 140.713 70.2727V72.2727ZM151.138 74.5556C153.821 76.0536 155.778 78.063 157.048 80.586L158.835 79.6867C157.372 76.7807 155.119 74.4876 152.114 72.8094L151.138 74.5556ZM157.048 80.586C158.338 83.1475 158.991 86.0196 158.991 89.2216H160.991C160.991 85.7389 160.278 82.5542 158.835 79.6867L157.048 80.586ZM158.991 89.2216C158.991 92.4235 158.338 95.3059 157.047 97.8873L158.836 98.7817C160.278 95.8972 160.991 92.7043 160.991 89.2216H158.991ZM157.045 97.8922C155.79 100.435 153.849 102.471 151.183 104.005L152.18 105.738C155.165 104.022 157.396 101.7 158.838 98.7769L157.045 97.8922ZM151.187 104.002C148.557 105.498 145.123 106.281 140.824 106.281V108.281C145.351 108.281 149.155 107.458 152.176 105.741L151.187 104.002ZM140.824 106.281H127.085V108.281H140.824V106.281ZM128.085 107.281V101.188H126.085V107.281H128.085ZM127.085 102.188H140.602V100.188H127.085V102.188ZM140.602 102.188C143.752 102.188 146.388 101.645 148.437 100.477L147.447 98.7399C145.803 99.6771 143.546 100.188 140.602 100.188V102.188ZM148.437 100.477C150.45 99.3303 151.94 97.7582 152.866 95.7639L151.051 94.9222C150.315 96.5103 149.128 97.7819 147.447 98.7399L148.437 100.477ZM152.864 95.7679C153.784 93.8083 154.233 91.6197 154.233 89.2216H152.233C152.233 91.3661 151.832 93.2584 151.053 94.9181L152.864 95.7679ZM154.233 89.2216C154.233 86.8237 153.784 84.6427 152.862 82.6994L151.055 83.5563C151.832 85.1954 152.233 87.0769 152.233 89.2216H154.233ZM152.866 82.707C151.937 80.7063 150.431 79.1493 148.393 78.0394L147.436 79.7958C149.128 80.7171 150.318 81.967 151.051 83.5487L152.866 82.707ZM148.399 78.043C146.334 76.8981 143.674 76.3665 140.491 76.3665V78.3665C143.476 78.3665 145.764 78.869 147.43 79.7922L148.399 78.043ZM140.491 76.3665H128.414V78.3665H140.491V76.3665ZM127.414 77.3665V128H129.414V77.3665H127.414ZM128.414 127H121.545V129H128.414V127Z" fill="black"/>
</svg>
