<?xml version="1.0" encoding="UTF-8"?>
<!DOCTYPE svg PUBLIC "-//W3C//DTD SVG 1.1//EN" "http://www.w3.org/Graphics/SVG/1.1/DTD/svg11.dtd">
<!-- Creator: CorelDRAW -->
<svg xmlns="http://www.w3.org/2000/svg" xml:space="preserve" width="2.66666in" height="2.66666in" version="1.1" style="shape-rendering:geometricPrecision; text-rendering:geometricPrecision; image-rendering:optimizeQuality; fill-rule:evenodd; clip-rule:evenodd"
viewBox="0 0 2666.66 2666.66"
 xmlns:xlink="http://www.w3.org/1999/xlink"
 xmlns:xodm="http://www.corel.com/coreldraw/odm/2003">
 <defs>
  <style type="text/css">
   <![CDATA[
    .fil1 {fill:black}
    .fil3 {fill:#B3BDD1}
    .fil2 {fill:#D6E3FF}
    .fil0 {fill:#FF9AA2}
   ]]>
  </style>
 </defs>
 <g id="Layer_x0020_1">
  <metadata id="CorelCorpID_0Corel-Layer"/>
  <circle class="fil0" cx="1333.33" cy="1333.33" r="1333.33"/>
  <path class="fil1" d="M1324.45 970.3l-414.15 0c-26.32,0 -26.32,-39.98 0,-39.98l414.15 0c26.32,0 26.32,39.98 0,39.98z"/>
  <path class="fil1" d="M1413.2 1158.83l-591.65 0c-26.32,0 -26.32,-39.98 0,-39.98l591.65 0c26.31,0 26.32,39.98 0,39.98z"/>
  <path class="fil1" d="M1324.45 1359.3l-414.15 0c-26.32,0 -26.32,-39.98 0,-39.98l414.15 0c26.32,0 26.32,39.98 0,39.98z"/>
  <path class="fil1" d="M1413.2 1547.82l-591.65 0c-26.31,0 -26.31,-39.98 0,-39.98l591.65 0c26.31,0 26.32,39.98 0,39.98z"/>
  <path class="fil1" d="M1324.45 1736.35l-414.15 0c-26.31,0 -26.31,-39.98 0,-39.98l414.15 0c26.31,0 26.31,39.98 0,39.98z"/>
  <path class="fil1" d="M1900.07 1486.29c-9.11,0 -45.84,3.43 -38.09,-25.24l43.08 -156.01 155.18 -268.77c44.87,-77.72 160.95,-8.58 117,67.54l-158.41 272.97 -104.66 103.7c-3.76,3.7 -8.81,5.8 -14.09,5.8zm40.91 -163.51l-27.82 102.39 75.59 -74.89 153.83 -266.46c18.18,-31.44 -29.71,-58.79 -47.75,-27.57l-153.86 266.54z"/>
  <path class="fil1" d="M2039.07 1571.28l-296.27 0c-11.03,0 -19.99,-8.97 -19.99,-19.99l0 -84.99c0,-11.04 8.96,-19.99 19.99,-19.99l296.27 0c11.04,0 19.99,8.97 19.99,19.99l0 84.99c0,11.02 -8.96,19.99 -19.99,19.99zm-276.28 -40l256.28 0 0 -45 -256.28 0 0 45z"/>
  <path class="fil1" d="M2113.15 1869.5l-444.43 0c-11.04,0 -19.99,-8.97 -19.99,-19.99l0 -106.34c0,-11.04 8.97,-19.99 19.99,-19.99l444.43 0c11.03,0 19.99,8.97 19.99,19.99l0 106.34c0,11.04 -8.96,19.99 -19.99,19.99zm-424.43 -40l404.43 0 0 -66.35 -404.43 0 0 66.35z"/>
  <path class="fil1" d="M1488.26 1993.65l-898.11 0c-26.31,0 -26.31,-39.98 0,-39.98l898.11 0c25.67,0 46.54,-20.88 46.54,-46.54l0 -956.32c0,-26.31 39.98,-26.31 39.98,0l0 956.32c0.02,47.72 -38.8,86.53 -86.52,86.53zm-808.3 -257.78c-11.04,0 -19.99,-8.97 -19.99,-19.99l0 -956.33c0,-47.72 38.8,-86.52 86.52,-86.52l898.11 0c26.32,0 26.31,39.98 0,39.98l-898.11 0c-25.66,0 -46.54,20.88 -46.54,46.54l0 956.33c0,11.03 -8.95,19.99 -19.99,19.99z"/>
  <path class="fil1" d="M1734.42 970.79l-179.63 0c-11.04,0 -19.99,-8.96 -19.99,-19.99l0 -167.98c0,-60.54 49.25,-109.8 109.8,-109.8 60.54,0 109.81,49.26 109.81,109.8l0 167.98c0,11.05 -8.96,19.99 -19.99,19.99zm-159.63 -39.98l139.63 0 0 -147.99c0,-91.88 -139.62,-91.9 -139.62,0l0 147.99 -0.02 0z"/>
  <path class="fil1" d="M590.15 1993.65c-60.54,0 -109.81,-49.27 -109.81,-109.81l0 -167.98c0,-11.04 8.95,-19.99 19.99,-19.99l179.63 0c11.04,0 19.99,8.97 19.99,19.99l0 167.98c0,60.56 -49.26,109.81 -109.8,109.81zm-69.83 -257.78l0 147.97c0,91.89 139.63,91.89 139.63,0l0 -147.97 -139.63 0z"/>
  <path class="fil2" d="M910.3 930.32l414.15 0c26.32,0 26.32,39.98 0,39.98l-414.15 0c-26.32,0 -26.32,-39.98 0,-39.98zm-88.75 188.53l591.65 0c26.31,0 26.32,39.98 0,39.98l-591.65 0c-26.32,0 -26.32,-39.98 0,-39.98zm88.75 200.47l414.15 0c26.32,0 26.32,39.98 0,39.98l-414.15 0c-26.32,0 -26.32,-39.98 0,-39.98zm-88.75 188.52l591.65 0c26.31,0 26.32,39.98 0,39.98l-591.65 0c-26.31,0 -26.31,-39.98 0,-39.98zm-121.6 208.02l0 167.98c0,26.5 -9.43,50.83 -25.12,69.83l813.43 0c25.67,0 46.54,-20.88 46.54,-46.54l0 -1124.3c0,-26.49 9.43,-50.82 25.11,-69.81l-813.42 0c-25.66,0 -46.54,20.88 -46.54,46.54l0 956.31zm210.35 -19.49l414.15 0c26.31,0 26.31,39.98 0,39.98l-414.15 0c-26.31,0 -26.31,-39.98 0,-39.98z"/>
  <path class="fil3" d="M1574.79 930.81l0 0zm0.02 -147.99l-0.02 147.99 139.63 0 0 -147.99c0,-91.88 -139.62,-91.9 -139.62,0z"/>
  <path class="fil3" d="M659.96 1735.86l-139.63 0 0 147.97c0,91.89 139.63,91.89 139.63,0l0 -147.97z"/>
  <polygon class="fil3" points="1771.86,1531.3 2019.07,1531.29 2019.07,1486.29 1762.79,1486.29 1762.79,1531.29 "/>
  <path class="fil2" d="M1989.27 1571.28l-196.7 0c-0.16,8.61 -0.71,17.74 -0.71,26.39 0,23.76 -76.41,73.59 -103.16,91.65l0 33.84 404.44 0 0 -33.85c-26.76,-18.08 -103.15,-67.91 -103.15,-91.66 0,-8.66 -0.55,-17.77 -0.71,-26.39z"/>
  <path class="fil3" d="M2093.13 1869.5l-404.44 0c0,15.46 -3.71,45.56 24.31,45.56l355.82 -0c27.96,0 24.31,-30.61 24.31,-45.56z"/>
  <path class="fil3" d="M1913.17 1425.17l75.59 -74.89 153.83 -266.46c18.18,-31.44 -29.71,-58.79 -47.75,-27.57l-153.86 266.54 -27.82 102.39z"/>
  <polygon class="fil3" points="2093.16,1763.15 1688.72,1763.15 1688.72,1829.5 2093.16,1829.5 "/>
  <path class="fil1" d="M2068.83 1955.04l-355.81 0c-35.45,0 -64.31,-28.85 -64.31,-64.3l0 -212.09c0,-6.69 3.36,-12.95 8.94,-16.64 37.87,-25.15 81.66,-57.59 94.22,-71.09 3.74,-9.5 -11.52,-59.61 19.99,-59.61 26.74,0 19.99,36.04 19.99,66.37 0,23.76 -76.41,73.59 -103.16,91.65l0 201.42c0,13.41 10.9,24.31 24.31,24.31l355.82 -0c13.17,0 24.31,-11.13 24.31,-24.31l0 -201.42c-26.76,-18.08 -103.15,-67.91 -103.15,-91.66 0,-30.35 -6.74,-66.37 19.99,-66.37 31.51,0 16.26,50.12 19.99,59.63 12.55,13.51 56.35,45.94 94.21,71.08 5.57,3.7 8.94,9.95 8.94,16.64l0 212.09c0.02,35.46 -28.82,64.3 -64.28,64.3z"/>
 </g>
</svg>
