<svg width="279" height="91" viewBox="0 0 279 91" fill="none" xmlns="http://www.w3.org/2000/svg">
<path d="M84.9042 22.75C79.8671 14.0256 72.0772 7.21957 62.7557 3.39903C53.4342 -0.421507 43.1084 -1.04048 33.3972 1.63916C23.6861 4.31881 15.1389 10.1455 9.09571 18.2057C3.05255 26.2659 -0.144793 36.1038 0.00503231 46.1767C0.154857 56.2496 3.64337 65.988 9.92358 73.8649C16.2038 81.7418 24.9206 87.3118 34.7071 89.7014C44.4936 92.091 54.7965 91.1652 64.0002 87.0691C73.2039 82.973 80.788 75.9383 85.5633 67.068L78.2753 63.1445C74.3687 70.4012 68.1642 76.1562 60.6348 79.5071C53.1053 82.8581 44.6767 83.6155 36.6705 81.6606C28.6642 79.7056 21.5332 75.1489 16.3954 68.705C11.2577 62.261 8.40376 54.2941 8.28119 46.0536C8.15862 37.8131 10.7743 29.7649 15.7181 23.1709C20.662 16.577 27.6544 11.8102 35.5989 9.61804C43.5434 7.42586 51.9909 7.93224 59.6166 11.0578C67.2424 14.1833 73.6153 19.7512 77.736 26.8885L84.9042 22.75Z" fill="black"/>
<path d="M45.5 23L52.3771 36.0345L66.8988 38.5471L56.6274 49.1155L58.7252 63.7029L45.5 57.2L32.2748 63.7029L34.3726 49.1155L24.1012 38.5471L38.6229 36.0345L45.5 23Z" fill="black"/>
<path d="M82.5703 35.1445L81.3574 35.3203L81.5684 33.1055H92.3262L91.9922 35.1445C90.5508 35.1445 89.6426 35.1973 89.2676 35.3027C88.8926 35.4082 88.6465 35.5371 88.5293 35.6895C88.4238 35.8301 88.3711 36.0176 88.3711 36.252C88.3711 36.4863 88.3887 36.6855 88.4238 36.8496C88.4707 37.002 88.5645 37.3066 88.7051 37.7637C92.0918 48.7441 93.8965 54.6211 94.1191 55.3945C97.4707 46.2188 99.3047 41.1738 99.6211 40.2598C100.324 38.2207 100.67 37.0078 100.658 36.6211C100.658 36.2227 100.605 35.9414 100.5 35.7773C100.395 35.6016 100.26 35.4668 100.096 35.373C99.8145 35.2207 99.3984 35.1445 98.8477 35.1445C98.2969 35.1445 97.752 35.2148 97.2129 35.3555L97.4062 33.1055H106.652L106.406 35.1445C105.469 35.1445 104.859 35.25 104.578 35.4609C104.121 35.7773 103.787 36.252 103.576 36.8848L95.1914 59.7715C93.9258 59.8535 93.0176 60.0234 92.4668 60.2812L92.291 60.2637L86.1914 42.1758C82.6875 52.6406 80.8535 58.1367 80.6895 58.6641L80.4082 59.543C80.373 59.6367 80.3496 59.7129 80.3379 59.7715C79.0723 59.8535 78.1641 60.0234 77.6133 60.2812L77.4375 60.2637C72.8789 47.959 70.2715 40.9805 69.6152 39.3281L68.9824 37.5352C68.584 36.457 68.2383 35.7891 67.9453 35.5312C67.6641 35.2734 67.3477 35.1445 66.9961 35.1445C66.6445 35.1445 66.2695 35.2266 65.8711 35.3906L66.0996 33.1055H76.1719L75.9082 35.1445C74.6895 35.1445 73.9219 35.1914 73.6055 35.2852C73.0312 35.4492 72.7441 35.7832 72.7441 36.2871C72.7441 36.627 72.8379 37.0781 73.0254 37.6406L79.125 55.1484L84.9082 38.2031C84.252 36.1641 83.4727 35.1445 82.5703 35.1445ZM113.068 57.6621C113.244 57.873 113.473 58.0078 113.754 58.0664C114.047 58.1133 114.65 58.1367 115.564 58.1367C116.479 58.1367 117.193 58.0664 117.709 57.9258L117.586 60H106.266L106.512 58.1367C107.543 58.1367 108.205 57.9551 108.498 57.5918C109.025 56.9355 109.289 55.7754 109.289 54.1113V45.6387C109.289 44.0566 109.125 43.0781 108.797 42.7031C108.434 42.2812 107.637 42.0352 106.406 41.9648L106.652 39.7148L112.963 38.7656C112.846 39.6211 112.787 40.5996 112.787 41.7012C114.018 40.5293 115.459 39.6445 117.111 39.0469C117.697 38.8477 118.254 38.748 118.781 38.748C121.031 38.748 122.156 39.75 122.156 41.7539C122.156 42.9375 121.986 44.209 121.646 45.5684C121.623 45.6621 121.605 45.7266 121.594 45.7617C121.582 45.7852 121.576 45.8027 121.576 45.8145H118.641L118.746 44.9883L118.816 44.2852C118.84 44.0625 118.852 43.8281 118.852 43.582C118.852 43.3359 118.828 43.0898 118.781 42.8438C118.746 42.5977 118.67 42.3926 118.553 42.2285C118.342 41.9121 117.984 41.7539 117.48 41.7539C116.977 41.7539 116.496 41.8301 116.039 41.9824C115.594 42.1348 115.16 42.3164 114.738 42.5273C113.883 42.9727 113.221 43.4297 112.752 43.8984L112.787 43.8809L112.805 55.6758C112.805 56.7891 112.893 57.4512 113.068 57.6621ZM130.559 35.2852C130.23 35.4141 129.873 35.4785 129.486 35.4785C129.1 35.4785 128.736 35.4141 128.396 35.2852C128.057 35.1445 127.764 34.957 127.518 34.7227C126.979 34.2305 126.709 33.6973 126.709 33.123C126.709 32.5371 126.779 32.0742 126.92 31.7344C127.061 31.3945 127.26 31.1016 127.518 30.8555C128.057 30.3281 128.719 30.0645 129.504 30.0645C130.266 30.0645 130.904 30.3281 131.42 30.8555C131.924 31.3828 132.176 32.0449 132.176 32.8418C132.176 34.0254 131.637 34.8398 130.559 35.2852ZM131.895 38.7305C131.367 40.2539 131.104 43.2539 131.104 47.7305L131.227 55.9219C131.227 56.6367 131.338 57.1875 131.561 57.5742C131.783 57.9492 132.229 58.1367 132.896 58.1367C133.436 58.1367 133.916 58.0664 134.338 57.9258L134.092 60H124.652L124.969 58.1367C126.117 58.1367 126.896 57.8203 127.307 57.1875C127.646 56.6484 127.816 55.752 127.816 54.498V45.3047C127.816 43.8398 127.559 42.8906 127.043 42.457C126.633 42.1055 125.73 41.9297 124.336 41.9297L124.617 39.7148L131.895 38.7305ZM148.453 56.2559L149.227 57.75C148.066 58.8281 146.584 59.5898 144.779 60.0352C144.205 60.1875 143.602 60.2637 142.969 60.2637C142.336 60.2637 141.75 60.1934 141.211 60.0527C140.684 59.9121 140.244 59.6719 139.893 59.332C139.213 58.6758 138.838 57.5098 138.768 55.834V41.7715H135.709L135.85 39.9785C137.49 39.6855 138.627 39.0703 139.26 38.1328C139.764 37.3828 140.191 35.9004 140.543 33.6855H142.459V39.082H148.945V41.7715H142.318V53.7949C142.318 55.2598 142.529 56.2266 142.951 56.6953C143.303 57.082 144.035 57.2754 145.148 57.2754C146.262 57.2754 147.363 56.9355 148.453 56.2559ZM161.795 57.2578C164.115 57.1055 166.16 56.5488 167.93 55.5879L168.703 57.0645C166.934 58.5293 164.918 59.5312 162.656 60.0703C161.977 60.2227 161.355 60.2988 160.793 60.2988C156.375 60.2988 153.592 58.3477 152.443 54.4453C152.068 53.1914 151.881 51.7324 151.881 50.0684C151.881 48.3926 152.15 46.8516 152.689 45.4453C153.24 44.0391 153.961 42.8438 154.852 41.8594C155.754 40.8633 156.785 40.0957 157.945 39.5566C159.105 39.0176 160.307 38.748 161.549 38.748C166.529 38.748 169.02 41.5957 169.02 47.291V47.4668C169.02 48.9551 168.844 49.6992 168.492 49.6992H155.555C155.555 52.1484 156.094 54.0117 157.172 55.2891C158.262 56.5664 159.803 57.2227 161.795 57.2578ZM165.012 47.4492C165.023 47.2031 165.029 47.0156 165.029 46.8867V46.3066C165.029 43.5527 164.268 41.8594 162.744 41.2266C162.193 40.9922 161.602 40.875 160.969 40.875C160.348 40.875 159.82 40.9688 159.387 41.1562C158.953 41.3438 158.543 41.6016 158.156 41.9297C157.781 42.2578 157.436 42.6445 157.119 43.0898C156.803 43.5234 156.527 44.0039 156.293 44.5312C155.801 45.6211 155.555 46.7344 155.555 47.8711L165.012 47.4492ZM203.578 41.1211C203.344 41.0273 203.121 40.9805 202.91 40.9805C202.711 40.9805 202.512 41.0742 202.312 41.2617C202.113 41.4375 201.92 41.6836 201.732 42C201.404 42.5742 201.041 43.4297 200.643 44.5664L195.07 59.9824L192.979 60.3164L188.848 48.9961L188.039 46.9219C187.898 46.5117 187.805 46.1191 187.758 45.7441L182.818 59.9824L180.867 60.2988L180.727 60.2812L174.381 43.5645C174.193 43.0488 174.094 42.7793 174.082 42.7559C173.848 42.0645 173.502 41.6016 173.045 41.3672C172.588 41.1211 172.031 40.998 171.375 40.998L171.621 39.0996H181.324L180.973 41.1211C180.562 41.0391 180.164 40.998 179.777 40.998C179.402 40.998 179.109 41.0156 178.898 41.0508C178.688 41.0859 178.512 41.1562 178.371 41.2617C178.078 41.4609 177.932 41.7891 177.932 42.2461C177.932 42.7031 177.99 43.1953 178.107 43.7227C178.225 44.25 178.383 44.8242 178.582 45.4453C178.781 46.0664 179.004 46.7109 179.25 47.3789L180.744 51.2812C180.979 51.8906 181.178 52.4062 181.342 52.8281C181.564 53.4375 181.764 54.1992 181.939 55.1133C183.791 50.3203 184.975 47.1152 185.49 45.498L186.562 42.0879C186.621 41.9004 186.68 41.6836 186.738 41.4375C186.797 41.1797 186.855 40.9219 186.914 40.6641C187.008 40.2422 187.09 39.8203 187.16 39.3984C187.863 39.3984 188.625 39.2871 189.445 39.0645C189.926 41.4902 190.951 44.9414 192.521 49.418L194.209 54.1289C194.338 54.4688 194.432 54.791 194.49 55.0957L198.164 44.1621C198.375 43.5293 198.48 42.9141 198.48 42.3164C198.48 41.4258 197.947 40.9805 196.881 40.9805C196.6 40.9805 196.207 41.0156 195.703 41.0859L196.002 39.082H203.912L203.578 41.1211ZM215.83 57.2578C218.15 57.1055 220.195 56.5488 221.965 55.5879L222.738 57.0645C220.969 58.5293 218.953 59.5312 216.691 60.0703C216.012 60.2227 215.391 60.2988 214.828 60.2988C210.41 60.2988 207.627 58.3477 206.479 54.4453C206.104 53.1914 205.916 51.7324 205.916 50.0684C205.916 48.3926 206.186 46.8516 206.725 45.4453C207.275 44.0391 207.996 42.8438 208.887 41.8594C209.789 40.8633 210.82 40.0957 211.98 39.5566C213.141 39.0176 214.342 38.748 215.584 38.748C220.564 38.748 223.055 41.5957 223.055 47.291V47.4668C223.055 48.9551 222.879 49.6992 222.527 49.6992H209.59C209.59 52.1484 210.129 54.0117 211.207 55.2891C212.297 56.5664 213.838 57.2227 215.83 57.2578ZM219.047 47.4492C219.059 47.2031 219.064 47.0156 219.064 46.8867V46.3066C219.064 43.5527 218.303 41.8594 216.779 41.2266C216.229 40.9922 215.637 40.875 215.004 40.875C214.383 40.875 213.855 40.9688 213.422 41.1562C212.988 41.3438 212.578 41.6016 212.191 41.9297C211.816 42.2578 211.471 42.6445 211.154 43.0898C210.838 43.5234 210.562 44.0039 210.328 44.5312C209.836 45.6211 209.59 46.7344 209.59 47.8711L219.047 47.4492ZM232.617 35.2852C232.289 35.4141 231.932 35.4785 231.545 35.4785C231.158 35.4785 230.795 35.4141 230.455 35.2852C230.115 35.1445 229.822 34.957 229.576 34.7227C229.037 34.2305 228.768 33.6973 228.768 33.123C228.768 32.5371 228.838 32.0742 228.979 31.7344C229.119 31.3945 229.318 31.1016 229.576 30.8555C230.115 30.3281 230.777 30.0645 231.562 30.0645C232.324 30.0645 232.963 30.3281 233.479 30.8555C233.982 31.3828 234.234 32.0449 234.234 32.8418C234.234 34.0254 233.695 34.8398 232.617 35.2852ZM233.953 38.7305C233.426 40.2539 233.162 43.2539 233.162 47.7305L233.285 55.9219C233.285 56.6367 233.396 57.1875 233.619 57.5742C233.842 57.9492 234.287 58.1367 234.955 58.1367C235.494 58.1367 235.975 58.0664 236.396 57.9258L236.15 60H226.711L227.027 58.1367C228.176 58.1367 228.955 57.8203 229.365 57.1875C229.705 56.6484 229.875 55.752 229.875 54.498V45.3047C229.875 43.8398 229.617 42.8906 229.102 42.457C228.691 42.1055 227.789 41.9297 226.395 41.9297L226.676 39.7148L233.953 38.7305ZM245.15 57.6621C245.326 57.873 245.555 58.0078 245.836 58.0664C246.129 58.1133 246.732 58.1367 247.646 58.1367C248.561 58.1367 249.275 58.0664 249.791 57.9258L249.668 60H238.348L238.594 58.1367C239.625 58.1367 240.287 57.9551 240.58 57.5918C241.107 56.9355 241.371 55.7754 241.371 54.1113V45.6387C241.371 44.0566 241.207 43.0781 240.879 42.7031C240.516 42.2812 239.719 42.0352 238.488 41.9648L238.734 39.7148L245.045 38.7656C244.928 39.6211 244.869 40.5996 244.869 41.7012C246.1 40.5293 247.541 39.6445 249.193 39.0469C249.779 38.8477 250.336 38.748 250.863 38.748C253.113 38.748 254.238 39.75 254.238 41.7539C254.238 42.9375 254.068 44.209 253.729 45.5684C253.705 45.6621 253.688 45.7266 253.676 45.7617C253.664 45.7852 253.658 45.8027 253.658 45.8145H250.723L250.828 44.9883L250.898 44.2852C250.922 44.0625 250.934 43.8281 250.934 43.582C250.934 43.3359 250.91 43.0898 250.863 42.8438C250.828 42.5977 250.752 42.3926 250.635 42.2285C250.424 41.9121 250.066 41.7539 249.562 41.7539C249.059 41.7539 248.578 41.8301 248.121 41.9824C247.676 42.1348 247.242 42.3164 246.82 42.5273C245.965 42.9727 245.303 43.4297 244.834 43.8984L244.869 43.8809L244.887 55.6758C244.887 56.7891 244.975 57.4512 245.15 57.6621ZM264.592 39.1875C265.482 38.8945 266.514 38.748 267.686 38.748C268.869 38.748 270.07 38.9121 271.289 39.2402V38.8887C271.289 36.123 271.242 34.5996 271.148 34.3184C271.055 34.0254 270.938 33.8145 270.797 33.6855C270.668 33.5566 270.492 33.4453 270.27 33.3516C270.059 33.2578 269.824 33.1875 269.566 33.1406C269.238 33.0938 268.67 33.0703 267.861 33.0703H267.527L267.791 31.0664L275.104 30.0469C275.104 30.1523 275.092 30.2402 275.068 30.3105C275.057 30.3809 275.033 30.5449 274.998 30.8027C274.963 31.0488 274.928 31.4766 274.893 32.0859C274.799 33.7148 274.752 35.9062 274.752 38.6602V54.6914C274.752 55.6055 274.852 56.25 275.051 56.625C275.262 57 275.555 57.1875 275.93 57.1875C276.422 57.1875 276.984 57.0762 277.617 56.8535L278.127 56.6953C278.104 56.8359 278.08 57.0352 278.057 57.293C278.045 57.5391 278.027 57.7969 278.004 58.0664C277.98 58.3359 277.963 58.6289 277.951 58.9453L272.432 60.3164C272.303 60.2578 272.121 59.9004 271.887 59.2441C271.664 58.5879 271.512 58.1074 271.43 57.8027C269.941 58.8574 268.359 59.6016 266.684 60.0352C266.098 60.1875 265.389 60.2637 264.557 60.2637C263.725 60.2637 262.816 60.0527 261.832 59.6309C260.848 59.209 259.998 58.582 259.283 57.75C257.725 55.9805 256.945 53.5371 256.945 50.4199C256.945 48.3809 257.414 46.4473 258.352 44.6191C259.758 41.8652 261.838 40.0547 264.592 39.1875ZM265.857 57.0469C266.514 57.0234 267.146 56.9473 267.756 56.8184C268.365 56.6895 268.916 56.543 269.408 56.3789C270.451 56.0391 271.09 55.752 271.324 55.5176L271.289 55.5352V42.7559C270.773 41.9824 269.783 41.4375 268.318 41.1211C267.896 41.0273 267.346 40.9805 266.666 40.9805C265.986 40.9805 265.248 41.1387 264.451 41.4551C263.666 41.7598 262.992 42.2637 262.43 42.9668C261.258 44.4316 260.672 46.7285 260.672 49.8574C260.672 51.9668 261.205 53.7188 262.271 55.1133C263.291 56.4375 264.486 57.082 265.857 57.0469Z" fill="black"/>
</svg>
